<?xml version="1.0" encoding="UTF-8"?>
<svg id="Layer_1" data-name="Layer 1" xmlns="http://www.w3.org/2000/svg" viewBox="0 0 18 18">
  <defs>
    <style>
      .cls-1 {
        stroke-width: 0px;
      }
    </style>
  </defs>
  <path class="cls-1" d="m14.6,12.81H6.37c-.31,0-.58-.24-.67-.6L3.04,1.69H.7c-.39,0-.7-.38-.7-.85s.31-.85.7-.85h2.86c.31,0,.58.24.67.6l2.66,10.52h7.24l2.12-6.09h-1.2c-.39,0-.7-.38-.7-.85s.31-.85.7-.85h2.26c.23,0,.45.14.58.38s.15.53.06.8l-2.71,7.78c-.11.31-.36.52-.65.52Z"/>
  <ellipse class="cls-1" cx="5.78" cy="16.51" rx="1.23" ry="1.49"/>
  <ellipse class="cls-1" cx="14.92" cy="16.51" rx="1.23" ry="1.49"/>
  <path class="cls-1" d="m12.46,3.27h-2.01V.85c0-.47-.31-.85-.7-.85s-.7.38-.7.85v2.43h-2.01c-.39,0-.7.38-.7.85s.31.85.7.85h2.01v2.43c0,.47.31.85.7.85s.7-.38.7-.85v-2.43h2.01c.39,0,.7-.38.7-.85s-.31-.85-.7-.85Z"/>
</svg>