<?xml version="1.0" encoding="UTF-8"?>
<svg id="Layer_1" data-name="Layer 1" xmlns="http://www.w3.org/2000/svg" viewBox="0 0 31.86 31.98">
  <defs>
    <style>
      .cls-1 {
        fill: #f3e0d4;
      }

      .cls-1, .cls-2, .cls-3, .cls-4, .cls-5, .cls-6 {
        stroke-width: 0px;
      }

      .cls-2 {
        fill: #0d0b10;
      }

      .cls-3 {
        fill: #f9eddd;
      }

      .cls-4 {
        fill: #51485b;
      }

      .cls-5 {
        fill: #b1a7b0;
      }

      .cls-6 {
        fill: #797183;
      }
    </style>
  </defs>
  <path class="cls-2" d="m19.18,2.73c.8-.42,1.61-.83,2.52-.99,1.56-.27,3.04-.05,4.42.75.17.1.28.13.42-.05.22-.26.54-.25.84-.23.2.01.34-.05.48-.19.46-.45.98-.81,1.59-1.06.63-.26,1.23-.57,1.84-.87.16-.08.33-.15.48-.04.16.11.06.29.06.44-.03,1.03-.14,2.05-.26,3.08-.03.27-.09.49-.29.67-.16.15-.3.32-.44.49-.2.24-.42.45-.33.83.05.19-.04.42-.19.57-.37.37-.69.82-1.19,1.04-.13.06-.18.13-.18.27,0,.81.07,1.63-.07,2.43-.03.16.1.24.18.34.86,1.03,1.34,2.2,1.37,3.56.02,1.26-.34,2.39-1.13,3.37-.19.24-.28.48-.27.79,0,2.23,0,4.47,0,6.7,0,1.33-.45,2.5-1.32,3.49-.8.92-1.84,1.4-3.05,1.51-1.97,0-3.95,0-5.92,0-1.53,0-3.05,0-4.58,0-1.59,0-3.18,0-4.77-.02-.12,0-.2.02-.27.13-.87,1.35-2.1,2.09-3.7,2.16-1.3.05-2.6.12-3.89-.03-.58-.07-1.17-.36-1.51-.7,1.3-.27,1.84-.88,2.12-2.36.12-.67.1-1.36.29-2.01.11-.39.23-.77.46-1.1.22-.3.27-.61.26-.98-.1-2.35-.04-4.71-.05-7.06,0-.24-.06-.43-.21-.63-1.42-1.87-1.37-4.2.11-6.03.13-.16.14-.31.13-.5-.07-1.25-.15-2.5.2-3.72.6-2.14,2.42-3.65,4.64-3.88,1.62,0,3.25,0,4.87,0,2.02,0,4.05,0,6.07,0,.07.01.11-.04.16-.08.05-.03.09-.07.14-.1Zm-9.48,21.14c.14.32.43.5.66.74.1.1.22.06.32-.03.12-.11.04-.2-.03-.28-.23-.24-.45-.5-.76-.66.01-.07-.01-.13-.08-.16-.02-.02-.04-.04-.05-.05-.02-.02-.04-.04-.07-.07-.24-.25-.48-.5-.72-.75-.07-.07-.16-.18-.26-.03-.06.1-.22.18-.05.32.24.2.4.49.66.67.11.11.18.28.37.29ZM28.28,2.9q.45.47.88,0s.04-.03.05-.05c.26-.37.59-.69.76-1.13.11-.15.29-.24.38-.5-.44.21-.81.39-1.18.58-.37.19-.69.44-.94.78-.1.14-.11.23.04.32ZM3.66,27.31s.05-.06.02-.1c-.01-.03-.02-.06-.03-.09.08-.02.11-.1.13-.16.34-1.22,1.15-1.91,2.39-2.12.1-.02.23,0,.26-.14.05,0,.09,0,.14.01.05.05.07.03.08-.03.02-.1.03-.2-.11-.22-.17-.02-.34-.07-.5-.06-1.14.07-2.03.57-2.6,1.59-.23.33-.38.7-.43,1.1-.15.61-.08,1.25-.21,1.87.53-.43.8-.99.87-1.65Zm10.4-8.83c.01.05.05.08.1.09h0c.53.64,1.18,1.16,1.71,1.76.13-.12.23-.22.34-.31.12-.11.13-.2,0-.32-.51-.47-.95-1-1.48-1.44-.4-.4-.81-.79-1.2-1.2-.18-.19-.28-.11-.43.04-.16.16-.19.27-.02.43.33.31.65.64.98.96Zm-4.8,5.9c-.29-.3-.57-.62-.88-.91-.35-.33-.86-.28-1.18.09-.13.16-.16.33-.01.48.69.69,1.38,1.39,2.09,2.06.26.24.63.2.85-.03.21-.23.19-.54-.06-.84-.23-.32-.52-.59-.81-.85ZM28.28,5.62c.12.21.32.34.5.5q.36.32.68-.05c.52-.24.61-.68.21-1.07-.15-.15-.3-.31-.5-.4-.44-.52-.97-.95-1.45-1.43-.43-.43-.7-.42-1.11.05-.21.26-.26.53-.01.78.55.55,1.12,1.08,1.68,1.61ZM10.27,23.07c.3.31.59.63.9.94.06.06.1.19.25.06,1.23-1.11,2.47-2.21,3.72-3.3.14-.12.09-.19,0-.29-.37-.36-.74-.72-1.12-1.09-.44-.45-.87-.91-1.31-1.36-.13-.14-.22-.19-.39.01-1.05,1.23-1.96,2.56-3,3.81-.11.13-.11.2.01.31.32.29.63.6.94.91Zm6.63-15.37c-.25-.28-.46-.54-.71-.77-2.76-2.56-8.07-1.71-9.35,2.7-.06.21-.06.42-.4.44-2.29.14-3.51,2.28-3.56,3.85-.06,1.83,1.37,4.32,4.07,4.25,1.36-.03,2.72-.01,4.08,0,.21,0,.37-.05.5-.22.26-.32.52-.64.8-.94,1.27-1.36,2.55-2.7,3.82-4.06,1.69-1.8,3.44-3.53,5.27-5.18,1.39-1.25,2.76-2.52,4.19-3.73.26-.22.23-.59-.05-.77-.59-.37-1.25-.53-1.92-.61-3.16-.41-5.88,1.95-6.52,4.26-.07.25-.14.5-.22.78Zm.49,21.01s0-.01,0-.02c1.98,0,3.96,0,5.94,0,.58,0,1.17.06,1.75-.01.79-.1,1.39-.5,1.73-1.23.3-.63.19-1.25-.22-1.79-.47-.63-1.14-.85-1.9-.75-.26.03-.35,0-.42-.26-.42-1.49-1.92-2.29-3.37-1.79-.34.12-.44.09-.58-.26-.53-1.37-1.47-2.29-2.96-2.57-.17-.03-.36-.07-.47.09-.45.64-1.17.96-1.73,1.47-1.35,1.23-2.75,2.43-4.13,3.63-.14.12-.2.23-.18.43.05.65-.31,1.12-.96,1.25-.17.03-.21.09-.21.25,0,.39.06.78-.04,1.16-.08.3-.02.39.31.39,2.48-.01,4.96,0,7.43,0Zm1.55-10.54c2.23,0,4.38.03,6.53,0,2.48-.04,3.83-2.36,3.91-3.94.07-1.47-.45-2.7-1.55-3.68-.16-.14-.15-.23-.09-.41.2-.59.32-1.2.22-1.9-2.8,3.53-5.82,6.76-9.02,9.94Zm-14.92,6.28c.7-.49,1.48-.68,2.3-.71.17,0,.15-.12.18-.22.19-.55.56-.87,1.15-.9.1,0,.18-.02.25-.11.52-.63,1.05-1.27,1.59-1.89.2-.23.1-.29-.14-.34-.43-.08-.87-.1-1.3-.07-2.2.12-3.99,1.97-4.03,4.23Zm-.41,5.14c.12.03.15.05.18.05,1.33-.16,2.48-.66,3.24-1.82.37-.57.47-1.25.73-1.86.14-.32.02-.38-.24-.4-.08,0-.17,0-.25,0-1.19.12-1.97.73-2.32,1.88-.25.81-.56,1.58-1.33,2.15Zm15.75-18.04c-.25,0-.37.17-.5.3-1.48,1.52-2.96,3.05-4.44,4.57-.04.04-.08.09-.12.13-.11.12-.11.24,0,.35.11.12.24.18.38.06.11-.09.23-.18.33-.29,1.14-1.16,2.28-2.32,3.42-3.48.37-.38.74-.77,1.1-1.16.1-.1.16-.21.08-.36-.06-.11-.16-.14-.25-.13Zm4.31-3.58c.06,0,.13-.02.19-.07.7-.69,1.4-1.38,2.1-2.07.09-.09.1-.19.02-.29-.08-.09-.18-.14-.29-.09-.11.05-.21.12-.3.2-.42.4-.84.81-1.26,1.21-.22.21-.43.43-.64.65-.09.09-.12.22-.07.34.04.1.13.14.25.13Zm-15.56-3.07c0-.43-.32-.75-.73-.74-.41.01-.75.36-.74.74,0,.39.36.74.75.74.41,0,.72-.32.72-.74Zm19.44,15.51c0-.27-.19-.47-.48-.48-.33-.01-.68.3-.68.63,0,.3.22.38.46.39.38.02.68-.22.69-.54Zm-5.68-.34c0-.28-.26-.51-.55-.51-.29,0-.53.25-.53.54,0,.27.27.54.54.54.29,0,.55-.27.54-.57Zm3.1-.08c-.25,0-.43.1-.43.38,0,.29.33.58.68.57.22-.01.45-.07.44-.37,0-.28-.37-.58-.69-.58Zm1.02-1.08c-.24.02-.4.17-.42.45-.02.28.21.51.5.49.27-.02.46-.15.48-.44.01-.27-.23-.5-.55-.5Zm.55,2.74c0-.26-.21-.49-.47-.49-.27,0-.5.23-.49.52.01.29.19.43.47.44.27.01.49-.2.5-.46ZM5.39,7.93c.3-.01.45-.16.46-.45.01-.28-.2-.52-.46-.5-.28.02-.43.2-.44.48,0,.28.14.45.43.47Zm10.6-2.92c.26,0,.48-.22.45-.46-.03-.27-.17-.45-.47-.44-.29.01-.44.19-.45.47,0,.27.19.45.47.44Zm10.87,18.04c-.27.01-.46.13-.46.41,0,.27.17.44.43.45.26.01.43-.16.44-.43,0-.27-.14-.42-.41-.44ZM30.95,2.67c-.16.6-.47,1.11-.86,1.58-.06.07-.1.15-.02.23.1.1.14-.02.2-.07.59-.43.74-1.04.68-1.74Z"/>
  <path class="cls-3" d="m18.88,2.92c-2.02,0-4.05,0-6.07,0-1.62,0-3.25,0-4.87,0,.05-.17.18-.13.3-.13,3.44,0,6.89,0,10.33,0,.11,0,.25-.04.31.12Z"/>
  <path class="cls-3" d="m14.15,29.64c1.53,0,3.05,0,4.58,0,1.97,0,3.95,0,5.92,0-.05.17-.19.13-.3.13-3.3,0-6.6,0-9.9,0-.11,0-.25.04-.3-.13Z"/>
  <path class="cls-3" d="m19.18,2.73s-.09.07-.14.1c0-.08-.01-.21.14-.1Z"/>
  <path class="cls-3" d="m16.9,7.7c.08-.28.15-.53.22-.78.64-2.31,3.36-4.67,6.52-4.26.68.09,1.33.25,1.92.61.29.18.32.55.05.77-1.43,1.2-2.8,2.47-4.19,3.73-1.83,1.65-3.58,3.39-5.27,5.18-1.27,1.35-2.55,2.7-3.82,4.06-.28.3-.55.62-.8.94-.14.17-.29.22-.5.22-1.36,0-2.72-.03-4.08,0-2.71.07-4.13-2.42-4.07-4.25.05-1.58,1.27-3.71,3.56-3.85.34-.02.34-.23.4-.44,1.28-4.41,6.59-5.26,9.35-2.7.25.23.46.49.71.77Zm-6.51,4.19c.16-.18.14-.36.18-.52.2-.88.73-1.43,1.61-1.62.08-.02.17-.03.25-.05.1-.02.21-.05.21-.17,0-.14-.14-.1-.23-.11-1.04-.14-1.52-.56-1.79-1.56-.04-.14-.05-.29-.08-.43-.03-.11.02-.3-.13-.29-.14,0-.1.19-.12.3-.2,1.08-.73,1.91-1.96,1.98-.07,0-.15,0-.17.09-.02.12.08.13.16.14.12.03.24.05.35.08.8.19,1.32.68,1.53,1.48.05.21.11.41.18.66Z"/>
  <path class="cls-5" d="m17.4,28.71c-2.48,0-4.96,0-7.43,0-.33,0-.39-.08-.31-.39.1-.38.05-.77.04-1.16,0-.16.03-.22.21-.25.65-.13,1.01-.6.96-1.25-.02-.2.05-.31.18-.43,1.38-1.21,2.77-2.4,4.13-3.63.56-.51,1.28-.84,1.73-1.47.11-.16.3-.12.47-.09,1.48.28,2.43,1.2,2.96,2.57.13.35.24.38.58.26,1.45-.5,2.96.3,3.37,1.79.07.26.16.29.42.26.76-.1,1.43.12,1.9.75.4.54.51,1.16.22,1.79-.34.72-.94,1.13-1.73,1.23-.58.07-1.16.01-1.75.01-1.98,0-3.96,0-5.94,0,0,0,0,.01,0,.02Z"/>
  <path class="cls-3" d="m18.95,18.17c3.19-3.18,6.22-6.41,9.02-9.94.1.7-.02,1.31-.22,1.9-.06.18-.06.27.09.41,1.11.97,1.62,2.21,1.55,3.68-.08,1.57-1.43,3.89-3.91,3.94-2.15.04-4.3,0-6.53,0Z"/>
  <path class="cls-5" d="m4.03,24.45c.04-2.26,1.82-4.11,4.03-4.23.44-.02.87,0,1.3.07.24.04.33.11.14.34-.54.62-1.07,1.25-1.59,1.89-.07.09-.15.1-.25.11-.59.03-.96.35-1.15.9-.03.1-.01.21-.18.22-.82.03-1.6.22-2.3.71Z"/>
  <path class="cls-3" d="m10.27,23.07c-.31-.3-.62-.61-.94-.91-.13-.11-.12-.18-.01-.31,1.03-1.24,1.94-2.58,3-3.81.17-.2.26-.15.39-.01.44.45.87.91,1.31,1.36-.04.05-.07.1-.11.14-1.14,1.14-2.28,2.28-3.41,3.42-.06.06-.12.12-.22.11Z"/>
  <path class="cls-5" d="m10.27,23.07c.09,0,.16-.05.22-.11,1.14-1.14,2.28-2.28,3.41-3.42.04-.04.07-.1.11-.14.37.36.74.73,1.12,1.09.1.1.14.17,0,.29-1.24,1.1-2.48,2.2-3.72,3.3-.15.13-.19,0-.25-.06-.3-.31-.6-.63-.9-.94Z"/>
  <path class="cls-4" d="m3.62,29.58c.77-.57,1.08-1.34,1.33-2.15.35-1.15,1.14-1.76,2.32-1.88.08,0,.17,0,.25,0,.26.02.38.08.24.4-.26.61-.36,1.29-.73,1.86-.76,1.17-1.91,1.67-3.24,1.82-.03,0-.06-.02-.18-.05Z"/>
  <path class="cls-3" d="m19.36,11.54c.09-.01.19.02.25.13.08.15.02.25-.08.36-.37.39-.73.78-1.1,1.16-1.14,1.16-2.28,2.32-3.42,3.48-.1.1-.21.2-.33.29-.15.12-.27.06-.38-.06-.1-.11-.11-.24,0-.35.04-.04.08-.09.12-.13,1.48-1.52,2.96-3.05,4.44-4.57.13-.13.25-.31.5-.3Z"/>
  <path class="cls-3" d="m26.61,3.23c.41-.47.68-.48,1.11-.05.48.48,1,.91,1.45,1.43.02.17-.06.29-.15.43-.17.27-.32.35-.58.09-.57-.58-1.16-1.14-1.75-1.7-.06-.06-.07-.12-.08-.2Z"/>
  <path class="cls-5" d="m26.61,3.23c0,.07.02.14.08.2.58.57,1.18,1.12,1.75,1.7.26.27.41.18.58-.09.09-.14.17-.26.15-.43.2.09.35.25.5.4.4.39.31.83-.21,1.07-.24-.19-.48-.39-.73-.57-.18-.13-.37-.2-.45.11-.56-.54-1.13-1.07-1.68-1.61-.25-.25-.2-.52.01-.78Z"/>
  <path class="cls-5" d="m10.06,25.24c.25.3.27.61.06.84-.21.23-.59.28-.85.03-.71-.67-1.4-1.37-2.09-2.06-.15-.15-.12-.33.01-.48.49.32.88.75,1.25,1.18.1.12.18.26.35.29.06.21.23.33.39.45.33.24.69.13.87-.26Z"/>
  <path class="cls-3" d="m23.67,7.97c-.12.01-.21-.03-.25-.13-.05-.12-.02-.24.07-.34.21-.22.42-.43.64-.65.42-.41.83-.81,1.26-1.21.09-.08.19-.15.3-.2.11-.05.21,0,.29.09.08.1.07.2-.02.29-.7.69-1.4,1.38-2.1,2.07-.05.05-.12.08-.19.07Z"/>
  <path class="cls-3" d="m8.12,4.9c0,.42-.31.74-.72.74-.39,0-.74-.35-.75-.74,0-.39.34-.73.74-.74.41-.01.72.31.73.74Z"/>
  <path class="cls-3" d="m8.81,25.04c-.17-.04-.25-.18-.35-.29-.38-.44-.77-.86-1.25-1.18.31-.37.83-.42,1.18-.09.31.29.59.61.88.91-.14.23-.11.57-.45.66Z"/>
  <path class="cls-4" d="m2.99,27.08c.05-.4.2-.77.43-1.1,0,.08.03.15.12.06.18-.17.36-.36.55-.52.67-.59,1.42-.94,2.33-.83-.03.15-.16.13-.26.14-1.24.21-2.05.9-2.39,2.12-.02.07-.04.14-.13.16-.22.05-.44-.1-.66-.03Z"/>
  <path class="cls-5" d="m14.73,18.25c.53.44.97.98,1.48,1.44.14.12.12.21,0,.32-.11.1-.21.2-.34.31-.54-.6-1.18-1.12-1.71-1.76.15-.19.42-.14.57-.32Z"/>
  <path class="cls-1" d="m14.73,18.25c-.15.18-.42.14-.57.32,0,0,0,0,0,0-.03-.03-.07-.06-.1-.09-.33-.32-.65-.65-.98-.96-.18-.16-.15-.28.02-.43.15-.14.25-.23.43-.04.39.41.8.8,1.2,1.2Z"/>
  <path class="cls-1" d="m6.42,24.69c-.92-.11-1.67.24-2.33.83-.19.17-.36.35-.55.52-.09.09-.11.02-.12-.06.57-1.01,1.46-1.52,2.6-1.59.17-.01.34.04.5.06.14.02.13.12.11.22-.03.01-.05.02-.08.03-.05,0-.09,0-.14-.01Z"/>
  <path class="cls-6" d="m2.99,27.08c.22-.07.44.08.66.03.01.03.02.06.03.09,0,.03-.02.07-.02.1-.07.66-.34,1.21-.87,1.65.13-.62.05-1.26.21-1.87Z"/>
  <path class="cls-1" d="m27.56,20.41c0,.32-.31.56-.69.54-.25-.01-.46-.09-.46-.39,0-.33.35-.64.68-.63.28.01.48.21.48.48Z"/>
  <path class="cls-3" d="m21.88,20.07c0,.29-.25.56-.54.57-.27,0-.54-.27-.54-.54,0-.29.24-.53.53-.54.29,0,.54.23.55.51Z"/>
  <path class="cls-4" d="m29.98,1.73c-.17.44-.5.75-.76,1.13-.01.02-.03.04-.05.05q-.43.46-.88,0c.48-.51,1.05-.89,1.69-1.17Z"/>
  <path class="cls-1" d="m8.81,25.04c.34-.09.31-.43.45-.66.29.26.58.53.81.85-.18.39-.54.5-.87.26-.16-.12-.33-.24-.39-.45Z"/>
  <path class="cls-1" d="m24.98,19.99c.32,0,.69.3.69.57,0,.3-.22.36-.44.37-.35.02-.69-.27-.68-.57,0-.28.19-.37.43-.37Z"/>
  <path class="cls-5" d="m25.99,18.91c.33,0,.57.23.55.5-.02.3-.21.42-.48.44-.29.02-.52-.21-.5-.49.02-.28.18-.43.42-.45Z"/>
  <path class="cls-1" d="m29.98,1.73c-.64.28-1.21.67-1.69,1.17-.15-.09-.14-.18-.04-.32.25-.34.57-.59.94-.78.37-.19.75-.36,1.18-.58-.09.27-.28.35-.38.5Z"/>
  <path class="cls-5" d="m26.54,21.65c0,.26-.23.48-.5.46-.28-.01-.46-.15-.47-.44,0-.28.23-.52.49-.52.26,0,.48.23.47.49Z"/>
  <path class="cls-3" d="m5.39,7.93c-.29-.02-.43-.19-.43-.47,0-.28.15-.46.44-.48.26-.02.47.22.46.5-.01.29-.17.44-.46.45Z"/>
  <path class="cls-1" d="m15.99,5.01c-.28,0-.47-.17-.47-.44,0-.28.15-.46.45-.47.3-.01.44.17.47.44.03.25-.19.46-.45.46Z"/>
  <path class="cls-3" d="m26.86,23.05c.27.02.42.17.41.44,0,.27-.18.44-.44.43-.25-.01-.43-.18-.43-.45,0-.28.18-.4.46-.41Z"/>
  <path class="cls-1" d="m9.33,23.58c-.26-.18-.42-.47-.66-.67-.18-.15-.02-.22.05-.32.1-.16.19-.04.26.03.25.25.48.5.72.75.02.02.04.04.07.07.02.02.04.04.05.05-.15.08-.32.09-.49.09Z"/>
  <path class="cls-6" d="m30.95,2.67c.06.7-.09,1.31-.68,1.74-.06.04-.11.16-.2.07-.08-.08-.04-.16.02-.23.39-.47.7-.98.86-1.58Z"/>
  <path class="cls-4" d="m9.89,23.64c.3.16.53.41.76.66.07.07.15.17.03.28-.1.09-.22.13-.32.03-.23-.23-.53-.42-.66-.74.03-.1.08-.19.2-.22Z"/>
  <path class="cls-6" d="m28.28,5.62c.08-.32.27-.25.45-.11.25.18.49.38.73.57q-.32.36-.68.05c-.18-.16-.38-.29-.5-.5Z"/>
  <path class="cls-5" d="m9.89,23.64c-.11.03-.16.12-.2.22-.19,0-.26-.18-.37-.29.17,0,.33-.02.49-.09.07.03.1.08.08.16Z"/>
  <path class="cls-4" d="m3.66,27.31s.02-.07.02-.1c.02.04.02.07-.02.1Z"/>
  <path class="cls-4" d="m6.56,24.7s.05-.02.08-.03c0,.06-.03.08-.08.03Z"/>
  <path class="cls-5" d="m14.06,18.48s.07.06.1.09c-.06,0-.09-.04-.1-.09Z"/>
  <path class="cls-5" d="m9.76,23.43s-.04-.04-.07-.07c.02.02.04.04.07.07Z"/>
  <path class="cls-2" d="m10.39,11.9c-.07-.25-.13-.46-.18-.66-.21-.8-.73-1.29-1.53-1.48-.12-.03-.24-.06-.35-.08-.08-.02-.18-.02-.16-.14.01-.1.1-.09.17-.09,1.23-.07,1.76-.9,1.96-1.98.02-.11-.02-.3.12-.3.16,0,.11.18.13.29.03.14.04.29.08.43.27,1.01.76,1.43,1.79,1.56.09.01.22-.03.23.11,0,.12-.11.14-.21.17-.08.02-.17.03-.25.05-.89.19-1.41.74-1.61,1.62-.04.16-.03.35-.18.52Z"/>
</svg>