<?xml version="1.0" encoding="UTF-8"?>
<svg id="Layer_1" data-name="Layer 1" xmlns="http://www.w3.org/2000/svg" viewBox="0 0 32.11 32">
  <defs>
    <style>
      .cls-1 {
        fill: #f3e0d4;
      }

      .cls-1, .cls-2, .cls-3, .cls-4, .cls-5, .cls-6 {
        stroke-width: 0px;
      }

      .cls-2 {
        fill: #0d0b10;
      }

      .cls-3 {
        fill: #f9eddd;
      }

      .cls-4 {
        fill: #51485b;
      }

      .cls-5 {
        fill: #b1a7b0;
      }

      .cls-6 {
        fill: #797183;
      }
    </style>
  </defs>
  <path class="cls-2" d="m15.96,32c-3.85-.07-7.4-1.06-10.37-3.59C2.49,25.79.62,22.44.14,18.39-.17,15.68,0,13.01.98,10.44c1.06-2.81,2.85-5.07,5.18-6.93C8.7,1.49,11.6.35,14.81.06c2.92-.26,5.7.32,8.33,1.62,2.47,1.21,4.57,2.88,6.15,5.15,1.25,1.79,2.13,3.77,2.5,5.92,1.02,5.89-.43,11.05-4.8,15.24-1.89,1.82-4.23,2.86-6.76,3.49-.69.17-1.38.3-2.08.39-.73.1-1.46.13-2.2.13Zm11.51-16.38c-.06.05-.15.05-.18.16.85.23,1.57.06,2.17-.6.26-.29.42-.62.57-.97.3-.7.29-.72-.47-.84-1.76-.27-2.38.83-2.49,2.01,0,.06.01.13.02.2,0,0,.04,0,.06,0,.11-.02.23-.07.32.06Zm.66,5.56s.03-.01.03-.02c0-.02,0-.04-.01-.06.44-1.65-.11-2.96-1.53-3.65-.74-.36-1.54-.41-2.34-.31-.48.06-.96.16-1.46.13-.7-.05-1.16-.36-1.29-.9.15-.25.32-.5.45-.76.23-.46.38-.94.21-1.46-.06-.5-.35-.87-.69-1.21-.66-.65-1.47-1.06-2.32-1.4-2.23-.88-4.57-1.12-6.95-1.08-1.99.03-3.91.38-5.74,1.18-1.73.76-3.09,1.91-3.72,3.76-.47,1.38-.28,2.76,0,4.14.09.73.34,1.42.65,2.08.97,2.1,2.52,3.71,4.5,4.86,3.97,2.3,8.18,2.74,12.57,1.48,2.52-.72,4.68-2.01,6.35-4.06.65-.8,1.17-1.66,1.29-2.71h0Zm-2.85-10.79c-.01-.21-.15-.37-.22-.56-.04-.09-.17-.19-.08-.29.11-.11.23,0,.33.07.39.29.77.61,1.17.88.66.44,1.35.26,1.7-.45.1-.2.17-.43.22-.65.18-.73-.33-1.4-1.08-1.45-.47-.03-.92.09-1.36.21-.18.05-.35.1-.59.02.14-.16.25-.28.35-.4.18-.22.37-.44.53-.67.45-.65.34-1.19-.33-1.61-.51-.32-1.31-.35-1.7-.05-.42.32-.49.77-.4,1.25.05.25.17.48.25.73.07.2.19.39.11.62-.2-.01-.28-.17-.39-.28-.33-.33-.67-.64-1.06-.89-.31-.2-.64-.28-1.01-.16-.69.23-1.13,1.13-.92,1.92.17.65.69.89,1.52.76.44-.07.89-.25,1.39-.11-.27.31-.61.52-.77.88-.4.5-.48,1.06-.23,1.64.36.84,1.34,1.16,2.12.75.72-.38.9-1.29.42-2.13Zm-6.41-4.94c-1.57-.67-1.84-2.06-2.06-3.5-.29,1.46-.58,2.9-2.24,3.49,1.74.54,1.92,2.03,2.23,3.47.25-1.43.45-2.85,2.08-3.46Zm-12.94,4.76c.03-.99.59-1.47,1.5-1.68-.88-.2-1.33-.75-1.51-1.61-.23.87-.69,1.48-1.64,1.63,1,.15,1.43.78,1.65,1.66Zm4.2-2.52c.14-.88.51-1.55,1.45-1.79-.92-.24-1.28-.91-1.43-1.74-.17.91-.6,1.53-1.55,1.74,1.03.17,1.34.92,1.53,1.79Zm11.49-4.46c-.16.01-.31.06-.27.2.07.28-.05.29-.27.27-.18-.02-.22.11-.22.27,0,.15.06.25.22.23.21-.02.32,0,.32.26,0,.14.23.29.26.21.13-.33.44-.46.66-.68.02-.01.02-.05.01-.08-.08-.29-.64-.18-.55-.63,0,0-.12-.04-.16-.06Zm-7.76,4.29c0-.12-.03-.23-.14-.23-.25,0-.41-.06-.36-.36.02-.1-.07-.14-.16-.15-.09-.01-.18.03-.19.11-.03.24-.05.47-.4.42-.08-.01-.13.12-.11.19.07.29.63.12.55.57,0,0,.11.06.14.04.24-.13.24-.57.64-.5,0,0,.02-.07.03-.09Zm11.57,5.34c-.63,1.06-.62,1.92,0,2.65v-2.65ZM13.74,3.03c0-.12-.05-.2-.14-.19-.22.02-.37-.01-.34-.29,0-.07-.07-.11-.14-.12-.11-.01-.23.06-.22.14.03.27-.13.25-.31.26-.1,0-.16.09-.16.2,0,.12.09.17.19.16.17-.01.3,0,.27.22-.01.08.05.11.12.13.34.06.24-.58.65-.41.01,0,.06-.08.08-.1Z"/>
  <path class="cls-3" d="m2.77,19.54c-.29-1.38-.47-2.76,0-4.14.63-1.85,1.99-3,3.72-3.76,1.83-.8,3.75-1.15,5.74-1.18,2.38-.04,4.71.2,6.95,1.08.85.34,1.66.74,2.32,1.4.34.34.64.71.69,1.21.02.38-.27.6-.43.9-.22.42-.45.83-.23,1.33.14.54.59.85,1.29.9.49.03.97-.07,1.46-.13.81-.1,1.6-.05,2.34.31,1.42.69,1.97,2.01,1.53,3.65,0,0-.03.01-.03.02,0,.02,0,.04,0,.06h0c-.27.22-.32.56-.5.82-1.32,1.98-3.11,3.42-5.26,4.37-2.54,1.12-5.19,1.64-7.98,1.35-2.09-.22-4.08-.76-5.91-1.79-2.53-1.42-4.45-3.41-5.52-6.14-.04-.1-.06-.22-.19-.25Zm10.58-3.5c-.05.57.23.99.65,1.32.95.75,2.72.75,3.65,0,.44-.35.72-.8.6-1.4.18-.33,0-.6-.13-.88-.71-1.54-3.25-1.69-4.35-.45-.34.39-.57.85-.44,1.4Zm6.44,5.88c0,1.34,1.1,2.45,2.42,2.45,1.26,0,2.37-1.13,2.38-2.42,0-1.32-1.08-2.41-2.41-2.4-1.34,0-2.39,1.05-2.39,2.37Zm-1.61,2.21c0-1.3-1.06-2.39-2.34-2.39-1.34,0-2.43,1.08-2.42,2.4,0,1.33,1.1,2.38,2.45,2.36,1.27,0,2.31-1.08,2.31-2.37Zm-11.21-2.09c0,1.32,1.05,2.33,2.41,2.33,1.33,0,2.34-1.02,2.34-2.35,0-1.29-1.08-2.38-2.34-2.38-1.34,0-2.41,1.06-2.4,2.4Zm2.37-5.8c-.01-1.33-1.06-2.34-2.41-2.34-1.36,0-2.33.99-2.32,2.36,0,1.23,1.13,2.34,2.39,2.3,1.44-.05,2.26-.99,2.34-2.32Z"/>
  <path class="cls-3" d="m22.97,10.13c.15-.36.49-.56.77-.88-.5-.13-.95.04-1.39.11-.84.13-1.35-.11-1.52-.76-.21-.78.23-1.68.92-1.92.37-.12.7-.04,1.01.16.39.25.73.56,1.06.89.11.11.19.27.39.28.08-.23-.04-.42-.11-.62-.08-.24-.2-.48-.25-.73-.1-.48-.02-.93.4-1.25.4-.3,1.19-.27,1.7.05.67.42.79.96.33,1.61-.16.23-.35.45-.53.67-.1.12-.21.24-.35.4.24.08.41.03.59-.02.45-.12.89-.24,1.36-.21.75.05,1.26.72,1.08,1.45-.05.22-.12.45-.22.65-.36.71-1.05.89-1.7.45-.41-.27-.78-.59-1.17-.88-.09-.07-.22-.18-.33-.07-.09.09.04.19.08.29.07.19.21.35.22.56-.03.06-.06.12-.1.18-.27.4-.87.61-1.38.47-.55-.14-.8-.41-.83-.91Z"/>
  <path class="cls-5" d="m2.77,19.54c.13.03.15.15.19.25,1.07,2.74,2.99,4.72,5.52,6.14,1.84,1.03,3.83,1.58,5.91,1.79,2.78.29,5.44-.23,7.98-1.35,2.15-.95,3.94-2.39,5.26-4.37.18-.27.24-.61.5-.82-.12,1.05-.64,1.92-1.29,2.71-1.67,2.05-3.83,3.34-6.35,4.06-4.4,1.26-8.61.81-12.57-1.48-1.98-1.15-3.53-2.76-4.5-4.86-.31-.66-.55-1.35-.65-2.08Z"/>
  <path class="cls-3" d="m18.87,5.45c-1.63.61-1.83,2.03-2.08,3.46-.3-1.43-.49-2.93-2.23-3.47,1.67-.59,1.95-2.03,2.24-3.49.22,1.44.49,2.83,2.06,3.5Z"/>
  <path class="cls-3" d="m27.15,15.56s-.06,0-.06,0c-.01-.06-.03-.13-.02-.2.11-1.17.73-2.28,2.49-2.01.76.12.77.13.47.84-.15.35-.32.69-.57.97-.59.67-1.32.83-2.17.6.02-.12.12-.12.18-.16.26-.1.43-.31.64-.47.34-.23.69-.45,1-.79-.51.01-1.07.28-1.47.69-.17.16-.38.29-.48.52Z"/>
  <path class="cls-5" d="m22.97,10.13c.03.5.27.76.83.91.51.13,1.11-.07,1.38-.47.04-.06.07-.12.1-.18.48.84.31,1.75-.42,2.13-.78.42-1.76.09-2.12-.75-.25-.58-.17-1.14.23-1.64Z"/>
  <path class="cls-3" d="m5.93,10.21c-.22-.88-.65-1.51-1.65-1.66.94-.15,1.4-.76,1.64-1.63.18.86.64,1.42,1.51,1.61-.91.21-1.47.69-1.5,1.68Z"/>
  <path class="cls-3" d="m10.12,7.69c-.19-.87-.5-1.62-1.53-1.79.95-.22,1.38-.84,1.55-1.74.16.84.51,1.5,1.43,1.74-.94.24-1.31.91-1.45,1.79Z"/>
  <path class="cls-1" d="m21.61,3.23s.16.05.16.06c-.09.45.47.34.55.63,0,.02,0,.06-.01.08-.23.22-.53.34-.66.68-.03.07-.27-.07-.26-.21,0-.25-.11-.28-.32-.26-.15.02-.21-.09-.22-.23,0-.16.04-.29.22-.27.22.02.34.01.27-.27-.04-.15.12-.19.27-.2Z"/>
  <path class="cls-1" d="m13.85,7.52s-.02.09-.03.09c-.4-.07-.4.37-.64.5-.03.02-.14-.03-.14-.04.08-.45-.47-.28-.55-.57-.02-.08.03-.2.11-.19.35.06.36-.18.4-.42.01-.09.1-.13.19-.11.08.01.17.05.16.15-.05.3.11.36.36.36.12,0,.14.11.14.23Z"/>
  <path class="cls-4" d="m25.42,12.85v2.65c-.62-.73-.63-1.59,0-2.65Z"/>
  <path class="cls-1" d="m13.74,3.03s-.07.11-.08.1c-.41-.17-.31.47-.65.41-.08-.01-.13-.05-.12-.13.03-.23-.1-.24-.27-.22-.1,0-.19-.04-.19-.16,0-.11.06-.2.16-.2.18,0,.34.01.31-.26,0-.08.11-.15.22-.14.07,0,.15.05.14.12-.03.28.12.31.34.29.09,0,.14.07.14.19Z"/>
  <path class="cls-5" d="m21.52,16.37c-.22-.49,0-.91.23-1.33.16-.29.45-.52.43-.9.17.52.02,1-.21,1.46-.13.26-.3.51-.45.76Z"/>
  <path class="cls-6" d="m28.1,15.14c-.2.17-.38.38-.64.47-.08-.13-.2-.08-.32-.06.1-.23.31-.36.48-.52.14.13.3.12.47.11Z"/>
  <path class="cls-5" d="m28.13,21.18s0-.04,0-.06c0,0,.02-.01.03-.02,0,.02.01.04.01.06,0,0-.02.01-.03.02Z"/>
  <path class="cls-2" d="m19.79,21.92c0-1.32,1.05-2.36,2.39-2.37,1.33,0,2.42,1.08,2.41,2.4,0,1.29-1.11,2.42-2.38,2.42-1.32,0-2.42-1.11-2.42-2.45Z"/>
  <path class="cls-4" d="m18.18,24.12c0,1.29-1.04,2.36-2.31,2.37-1.36.01-2.45-1.04-2.45-2.36,0-1.32,1.09-2.4,2.42-2.4,1.27,0,2.33,1.09,2.34,2.39Z"/>
  <path class="cls-5" d="m6.97,22.03c0-1.34,1.06-2.4,2.4-2.4,1.26,0,2.33,1.1,2.34,2.38,0,1.33-1.01,2.35-2.34,2.35-1.36,0-2.4-1.01-2.41-2.33Z"/>
  <path class="cls-5" d="m9.34,16.24c-.09,1.33-.9,2.27-2.34,2.32-1.26.04-2.38-1.06-2.39-2.3,0-1.37.96-2.35,2.32-2.36,1.35,0,2.4,1.01,2.41,2.34Z"/>
  <path class="cls-2" d="m18.25,15.96c.12.6-.17,1.05-.6,1.4-.94.75-2.71.74-3.65,0-.42-.33-.7-.75-.65-1.32.24-.36.46-.72.83-.97,1.36-.9,3.05-.53,4.08.9Z"/>
  <path class="cls-5" d="m18.25,15.96c-1.03-1.43-2.72-1.79-4.08-.9-.38.25-.6.61-.83.97-.14-.56.1-1.02.44-1.4,1.1-1.25,3.64-1.09,4.35.45.13.27.31.55.13.88Z"/>
  <path class="cls-5" d="m28.1,15.14c-.17.01-.34.03-.47-.11.4-.4.96-.67,1.47-.69-.31.34-.66.56-1,.79Z"/>
</svg>