<?xml version="1.0" encoding="utf-8"?>
<!-- Generator: Adobe Illustrator 28.0.0, SVG Export Plug-In . SVG Version: 6.00 Build 0)  -->
<svg version="1.1" id="Layer_1" xmlns="http://www.w3.org/2000/svg" xmlns:xlink="http://www.w3.org/1999/xlink" x="0px" y="0px"
	 viewBox="0 0 32 32" style="enable-background:new 0 0 32 32;" xml:space="preserve">
<style type="text/css">
	.st0{fill:#F9EDDD;}
	.st1{fill:#B1A7B0;}
	.st2{fill:#797183;}
	.st3{fill:#51485B;}
	.st4{fill:#F3E0D4;}
	.st5{fill:#0D0B10;}
</style>
<path class="st0" d="M3.4,21.3c-0.9-0.1-1.5-0.6-1.8-1.4c-0.7-1.5-0.1-3.2,1.4-4c1.3-0.8,2.6-0.9,3.9-0.1c0.2,0.1,0.2-0.1,0.2-0.2
	c0.3-0.9,0.8-1.7,1.7-2.2c0.1,0,0.1-0.1,0.2-0.1c0.1,0.5,0.1,1,0.2,1.4c0,0,0,0.1,0,0.1c0,0,0,0.1,0,0.1c0,0,0,0.1,0,0.1
	c0.2,1.5,1,2.7,2.1,3.6c1.1,1,2.5,1.6,4,1.7c1,0.1,2-0.1,3-0.5c0.2-0.1,0.5-0.2,0.5-0.6c0.1-0.1,0.3-0.2,0.4-0.3
	c0.5-0.3,0.5-0.3,0.9,0.1c0.1,0.1,0.2,0.2,0.3,0.3c0.5,0.5,0.5,0.6,0,1.1c0,0-0.1,0.1-0.1,0.1l0,0c0,0,0,0,0,0c-0.1,0-0.2,0-0.2,0.1
	c0,0,0,0,0,0c-0.1,0-0.2,0-0.2,0.1c0,0,0,0-0.1,0c-0.2,0-0.4,0-0.6,0.2c0,0-0.1,0-0.1,0c-0.1-0.1-0.2-0.1-0.4-0.1c-5,0-10,0-14.9,0
	C3.6,21.3,3.5,21.2,3.4,21.3z"/>
<path class="st0" d="M2.3,15.5c0-2.4,0.6-4.4,1.9-6.3C6.5,5.6,9.8,3.5,14,3c4-0.5,7.5,0.8,10.5,3.4c2.3,2,3.8,4.5,4.4,7.6
	c0.3,1.6,0.3,3.2,0.2,4.8c0,0.2-0.1,0.2-0.2,0.2c-0.3,0-0.5,0-0.8,0c-0.3,0-0.3-0.1-0.3-0.3c0.3-1.9,0.2-3.8-0.4-5.6
	c-1.5-4.5-4.6-7.3-9.2-8.6c-2.5-0.7-5-0.4-7.5,0.6c-3.1,1.3-5.3,3.5-6.6,6.6c-0.4,0.9-0.5,1.9-0.7,2.9c0,0.2-0.1,0.2-0.2,0.3
	C3,15,2.7,15.2,2.3,15.5z"/>
<path class="st0" d="M9.6,14c-0.3-2,0.3-3.7,1.7-5.2c1.3-1.3,3-2,4.9-1.8c2.9,0.2,5.6,2.4,5.9,5.7c0,0.3,0.1,0.6,0,0.9
	c0-0.1-0.1-0.1-0.1-0.2c0-0.2,0-0.3-0.2-0.3c-0.2,0-0.2,0.2-0.2,0.3c0,0.2,0,0.4-0.1,0.6c-0.4,1.8-1.2,3.4-2.9,4.3
	c-1.5,0.8-3.2,1-4.8,0.3c-1.9-0.7-3.1-2-3.5-4C10.2,14.2,10,14,9.6,14z M20.9,13c0,0,0.1,0,0.1-0.1c0.5-0.1,0.5-0.1,0.4-0.6
	c0-0.1,0-0.1,0-0.2c-0.3-1.2-0.9-2.2-1.8-3c-1.2-1.1-2.6-1.5-4.2-1.4c-0.7,0-1.4,0.2-2,0.6c-1.7,0.8-2.8,2.1-3.1,4
	c-0.1,0.5-0.1,0.5,0.5,0.6c0,0.3,0,0.6,0,1c0.6,3.5,4.5,5.6,7.8,3.6C20.2,16.4,20.8,14.9,20.9,13z"/>
<path class="st0" d="M22.2,22.3c0.8-0.8,1.5-1.6,2.3-2.4c0.1-0.2,0.2,0,0.3,0.1c1.1,1.1,2.3,2.3,3.4,3.4c0.8,0.8,1.7,1.6,2.4,2.5
	c0,0.1,0,0.2,0.1,0.3c0.2,0.7-0.1,1.5-0.7,1.9c-0.6,0.4-1.3,0.2-1.8-0.3c-0.5-0.5-0.9-1-1.4-1.5c-1.1-1.2-2.1-2.4-3.3-3.5
	c-0.2-0.2-0.1-0.3,0-0.4c0.4-0.4,0.9-0.9,1.3-1.3c0.1-0.1,0.2-0.2,0-0.4c-0.2-0.2-0.3,0-0.4,0.1c-0.4,0.4-0.8,0.8-1.2,1.2
	C23,22.2,22.6,22.4,22.2,22.3z"/>
<path class="st1" d="M14.6,4.8c0.8-0.1,0.8-0.1,0.8,0.7c0,0.6,0,0.6-0.6,0.6c-4.3,0.4-8.2,3.2-9.2,7.7c-0.1,0.6-0.1,0.6-0.8,0.7
	c-0.2,0-0.6,0.2-0.7,0c-0.1-0.2,0-0.5,0.1-0.8c0.6-3.2,2.4-5.6,5.1-7.3C11,5.5,12.8,5,14.6,4.8z"/>
<path class="st2" d="M24.5,19c0.2-1.3,0.3-2.5,0.2-3.7c-0.2-1.5-0.8-2.8-1.6-4.1c-0.1-0.2-0.2-0.3,0.1-0.4c0.2-0.1,0.4-0.2,0.6-0.4
	c0.2-0.1,0.3-0.1,0.4,0.1c1.1,1.4,1.7,3.1,1.9,4.9c0.1,1.1,0.1,2.2-0.1,3.3c0,0.2-0.1,0.3-0.3,0.3C25.3,19,24.9,19,24.5,19z"/>
<path class="st1" d="M22.2,22.3c0.4,0.1,0.8,0,1-0.3c0.4-0.4,0.8-0.8,1.2-1.2c0.1-0.1,0.2-0.2,0.4-0.1c0.1,0.1,0.1,0.3,0,0.4
	c-0.4,0.4-0.8,0.9-1.3,1.3c-0.2,0.2-0.2,0.2,0,0.4c1.2,1.1,2.2,2.3,3.3,3.5c0.5,0.5,0.9,1,1.4,1.5c0.5,0.6,1.2,0.7,1.8,0.3
	c0.7-0.4,1-1.2,0.7-1.9c0-0.1-0.1-0.2-0.1-0.3c0.7,0.8,0.7,1.9-0.1,2.7c-0.7,0.7-1.9,0.8-2.6,0.1c-0.7-0.6-1.3-1.3-1.9-1.9
	c-1.3-1.3-2.6-2.6-3.8-3.9C22.1,22.6,21.9,22.5,22.2,22.3z"/>
<path class="st1" d="M9.6,14c0.4,0.1,0.6,0.3,0.6,0.6c0.5,2,1.7,3.3,3.5,4c1.6,0.6,3.3,0.5,4.8-0.3c1.7-0.9,2.5-2.4,2.9-4.3
	c0.2-0.1,0.4,0.1,0.5,0c-0.4,3.2-2.8,5.4-6,5.6c-2.8,0.2-5.6-1.9-6.3-4.7C9.7,14.5,9.6,14.3,9.6,14z"/>
<path class="st0" d="M21.3,29.2c1.4-0.2,2.2-1.1,2.4-2.5c0.3,1.4,1,2.2,2.4,2.4c-1.4,0.3-2.2,1.1-2.4,2.5
	C23.5,30.3,22.8,29.4,21.3,29.2z"/>
<path class="st0" d="M1.3,4c1.6-0.2,2.2-1.2,2.3-2.7C4.1,3.2,4.5,3.6,6.1,4C4.6,4.1,3.9,5.2,3.7,6.6C3.5,5.2,2.9,4.2,1.3,4z"/>
<path class="st0" d="M28.5,4.6c0,0.8-0.7,1.5-1.6,1.5c-0.9,0-1.6-0.7-1.6-1.6c0-0.8,0.8-1.6,1.6-1.6C27.8,3,28.5,3.8,28.5,4.6z
	 M27.9,4.6c0-0.5-0.5-1-1-1c-0.5,0-1,0.5-1,1c0,0.5,0.5,1,1,1C27.4,5.6,27.9,5.1,27.9,4.6z"/>
<path class="st1" d="M18.7,19.5c0,0.3-0.2,0.5-0.5,0.6c-0.9,0.4-1.9,0.6-3,0.5c-1.5-0.1-2.9-0.7-4-1.7c-1.1-1-1.9-2.1-2.1-3.6
	c0,0,0-0.1,0-0.1c0.4,1,0.8,2,1.6,2.8c2,2.2,5.1,2.9,7.8,1.7C18.6,19.5,18.7,19.5,18.7,19.5z"/>
<path class="st3" d="M23.4,20.3c-0.1,0.1-0.2,0.1-0.2,0.2c-0.3,0.3-0.4,0.3-0.7,0c-0.6-0.6-1.1-1.1-1.7-1.7
	c-0.3-0.3-0.3-0.6,0.2-0.8c0.1,0.1,0.2,0.1,0.2,0.2c0.6,0.6,1.3,1.3,1.9,1.9C23.2,20.2,23.2,20.3,23.4,20.3z"/>
<path class="st4" d="M3.4,21.3c0.1-0.1,0.2-0.1,0.4-0.1c5,0,10,0,14.9,0c0.1,0,0.3,0,0.4,0.1c-0.2,0-0.5,0.1-0.7,0.1
	c-4.8,0-9.7-0.1-14.5,0C3.7,21.4,3.5,21.4,3.4,21.3z"/>
<path class="st0" d="M20.1,28.4c0,0.6,0,1.2,0,1.8c0,0.2,0,0.3-0.2,0.3c-0.2,0-0.2-0.1-0.2-0.3c0-1.3,0-2.5,0-3.8
	c0-0.2,0-0.3,0.2-0.3c0.2,0,0.2,0.1,0.2,0.3C20.1,27.1,20.1,27.7,20.1,28.4C20.1,28.4,20.1,28.4,20.1,28.4z"/>
<path class="st0" d="M28.4,8c0.3,0.1,0.4-0.1,0.4-0.4c0-0.1,0-0.3,0.2-0.3c0.2,0,0.3,0,0.2,0.2c-0.1,0.4,0.1,0.6,0.5,0.5
	c0.2,0,0.2,0.1,0.2,0.2c0,0.2,0,0.3-0.2,0.2c-0.1,0-0.1,0-0.2,0c-0.3-0.1-0.4,0.1-0.3,0.4c0,0.1,0.2,0.4-0.2,0.4
	c-0.2,0-0.3,0-0.3-0.3c0.1-0.4-0.1-0.5-0.5-0.5c-0.2,0-0.3-0.1-0.3-0.3C28,7.9,28.2,8,28.4,8z"/>
<path class="st4" d="M8.6,3.1c-0.1-0.6-0.4-1-1-1.1c0.6-0.1,0.9-0.5,1-1.2C8.7,1.4,9,1.9,9.6,2C9,2.1,8.7,2.6,8.6,3.1z"/>
<path class="st3" d="M18.9,6.6c0.7,0.1,1.2,0.5,1.8,0.8c0.2,0.1,0.4,0.2,0.6,0.4c-0.3,0-0.5,0-0.7,0.1c-0.1,0-0.2,0-0.3,0
	c-0.4-0.4-0.9-0.6-1.3-0.9C19.1,6.8,18.8,6.7,18.9,6.6z"/>
<path class="st4" d="M13.5,23.7c0.1-0.2,0.2-0.4,0.3-0.6c0.2,0.2,0.1,0.4,0.3,0.6c0.1-0.2,0.1-0.3,0.2-0.4c0-0.1,0.1-0.1,0.2-0.1
	c0.1,0,0.1,0.1,0,0.2c-0.1,0.2-0.1,0.4-0.2,0.6c0,0.1,0,0.2-0.2,0.2c-0.1,0-0.1-0.1-0.2-0.2c0-0.1,0-0.1-0.1-0.2
	c-0.1,0-0.1,0.1-0.1,0.1c-0.1,0.1-0.1,0.3-0.3,0.3c-0.2,0-0.2-0.2-0.2-0.3c-0.1-0.2-0.1-0.3-0.1-0.5c0-0.1-0.1-0.2,0-0.2
	c0.1,0,0.1,0.1,0.2,0.2C13.4,23.5,13.5,23.6,13.5,23.7z"/>
<path class="st0" d="M23.4,20.3c-0.2,0.1-0.2-0.1-0.3-0.2c-0.6-0.6-1.3-1.3-1.9-1.9C21.1,18.1,21,18,21,18c0-0.2,0.1-0.3,0.2-0.1
	c0.7,0.7,1.4,1.4,2.1,2.2C23.4,20.1,23.4,20.2,23.4,20.3z"/>
<path class="st0" d="M25.5,2.3c0,0.3-0.2,0.4-0.4,0.3c-0.3-0.1-0.4-0.4-0.6-0.6c-0.1-0.1,0-0.3,0.1-0.4c0.1-0.1,0.2-0.1,0.4-0.1
	C25.3,1.7,25.5,2,25.5,2.3z"/>
<path class="st4" d="M29.8,2.4c0,0.3-0.6,0.7-0.9,0.7c-0.2,0-0.3-0.2-0.2-0.4c0.1-0.3,0.3-0.5,0.6-0.6C29.5,2,29.8,2.2,29.8,2.4z"/>
<path class="st4" d="M15.1,23.7c0,0.2,0,0.2,0,0.3c0,0.1,0.1,0.1-0.1,0.2c-0.1,0-0.2,0-0.2-0.1c0-0.2,0-0.5,0-0.7
	c0-0.1,0-0.2,0.1-0.2c0.1,0,0.1,0.1,0.2,0.1c0.1,0.1,0.2,0.2,0.3,0.4c0.1-0.1,0.1-0.2,0.1-0.3c0-0.1,0-0.2,0.1-0.1
	c0.1,0,0.1,0.1,0.1,0.2c0,0.2,0,0.5,0,0.7c0,0.1,0,0.2-0.1,0.2c-0.1,0-0.1,0-0.2-0.1C15.4,24,15.2,23.9,15.1,23.7z"/>
<path class="st4" d="M24.1,3.7c-0.3,0-0.7-0.3-0.7-0.6c0-0.2,0.1-0.3,0.4-0.4c0.3,0,0.8,0.4,0.8,0.6C24.5,3.6,24.4,3.7,24.1,3.7z"/>
<path class="st4" d="M4.4,23.6c0-0.1,0-0.2,0-0.2c0-0.1,0-0.2,0.1-0.2c0.2,0,0.1,0.1,0.1,0.2c0,0.2,0,0.4,0,0.5c0,0.1,0,0.2-0.1,0.3
	c-0.1,0.1-0.2-0.1-0.2-0.1C4.2,24,4.1,23.9,4,23.8c0,0-0.1,0-0.1,0c-0.1,0.1,0.1,0.4-0.1,0.4c-0.3,0-0.1-0.3-0.1-0.4
	c0-0.2-0.1-0.5,0.1-0.6c0.2-0.1,0.3,0.2,0.4,0.3C4.3,23.5,4.3,23.6,4.4,23.6z"/>
<path class="st0" d="M26.8,1.7c0,0.2-0.1,0.4-0.3,0.4c-0.2,0-0.3-0.1-0.4-0.3c0-0.2-0.1-0.3-0.1-0.5c0-0.2,0-0.4,0.3-0.5
	c0.2,0,0.3,0.1,0.4,0.3C26.8,1.3,26.8,1.5,26.8,1.7z"/>
<path class="st4" d="M17.6,24.2c-0.3,0-0.6-0.2-0.6-0.5c0-0.3,0.3-0.5,0.6-0.6c0.3,0,0.6,0.2,0.6,0.5C18.2,24,18,24.2,17.6,24.2z
	 M17.6,23.4c-0.2,0-0.3,0.1-0.3,0.2c0,0.2,0.1,0.3,0.3,0.3c0.2,0,0.3-0.1,0.3-0.3C17.9,23.5,17.8,23.4,17.6,23.4z"/>
<path class="st4" d="M30.4,4.1c0,0.3-0.3,0.5-0.7,0.5c-0.2,0-0.4-0.1-0.4-0.3c0-0.2,0.4-0.6,0.7-0.6C30.3,3.7,30.4,3.9,30.4,4.1z"/>
<path class="st4" d="M10.7,23.2c0.5,0,0.7,0.2,0.7,0.5c0,0.3-0.2,0.5-0.6,0.5c-0.4,0-0.4,0-0.4-0.8C10.5,23.2,10.6,23.1,10.7,23.2z
	 M10.7,23.7c0,0.1-0.1,0.3,0.1,0.3c0.2,0,0.3-0.1,0.3-0.3c0-0.2-0.1-0.3-0.3-0.3C10.7,23.4,10.8,23.5,10.7,23.7z"/>
<path class="st0" d="M27.5,1.8c0-0.4,0.3-0.7,0.5-0.7c0.2,0,0.3,0.1,0.3,0.3c0,0.3-0.3,0.8-0.5,0.8C27.6,2.2,27.5,2,27.5,1.8z"/>
<path class="st4" d="M12.9,23.7c0,0.3-0.3,0.6-0.6,0.6c-0.3,0-0.6-0.2-0.5-0.5c0-0.3,0.3-0.5,0.6-0.5C12.7,23.2,12.9,23.4,12.9,23.7
	z M12.6,23.7c0-0.2-0.1-0.3-0.3-0.3c-0.2,0-0.3,0.1-0.3,0.3c0,0.2,0.1,0.3,0.3,0.3C12.5,23.9,12.6,23.9,12.6,23.7z"/>
<path class="st4" d="M19.8,23.8c0.2-0.1-0.4-0.6,0.2-0.6c0.4,0,0.7,0.2,0.7,0.5c0,0.3-0.3,0.5-0.7,0.5C19.7,24.2,19.8,24,19.8,23.8z
	 M20,23.7c0,0.1-0.1,0.3,0.2,0.3c0.2,0,0.2-0.1,0.2-0.3c0-0.2-0.1-0.3-0.3-0.3C19.9,23.4,20.1,23.6,20,23.7z"/>
<path class="st4" d="M19.5,24.2c-0.2,0-0.3,0-0.4-0.1c-0.1-0.1-0.3-0.1-0.5,0c-0.1,0.1-0.2,0.1-0.2,0.1c-0.1-0.1,0-0.2,0-0.3
	c0.1-0.2,0.2-0.4,0.3-0.6c0-0.1,0-0.2,0.2-0.2c0.1,0,0.1,0.1,0.2,0.2C19.2,23.6,19.4,23.9,19.5,24.2z"/>
<path class="st4" d="M7.2,23.1c0.3,0.3,0.4,0.7,0.5,1.1c-0.2,0-0.4-0.2-0.6-0.2c-0.1,0-0.2,0.3-0.4,0.1c-0.1-0.2,0.1-0.3,0.2-0.5
	C7,23.5,7.1,23.3,7.2,23.1z"/>
<path class="st2" d="M18.9,6.6c-0.1,0.1,0.2,0.2,0.1,0.4c-0.8-0.4-1.7-0.7-2.6-0.8C17.2,6.1,18,6.2,18.9,6.6z"/>
<path class="st4" d="M5.2,24.2c0,0-0.1,0-0.1,0C5,24.2,4.9,24.1,5,24c0-0.1,0.1-0.1,0.2-0.1c0.1,0,0.2,0.1,0.2,0
	c0.1-0.2-0.1-0.1-0.2-0.2C5,23.7,4.9,23.5,5,23.3c0.1-0.2,0.3-0.2,0.5-0.1c0.1,0,0.1,0.1,0.1,0.1c0,0.1-0.1,0.1-0.2,0.1
	c-0.1,0-0.2-0.1-0.2,0c0,0.1,0.1,0.1,0.2,0.1c0.2,0.1,0.3,0.2,0.3,0.4C5.6,24.2,5.5,24.2,5.2,24.2z"/>
<path class="st4" d="M9.3,23.2c0.1,0,0.2,0,0.3,0c0.1,0,0.1,0.1,0.1,0.1c0,0.1,0,0.1-0.1,0.1c-0.3,0-0.2,0.2-0.2,0.4
	c0,0.1,0,0.2,0,0.3c0,0.1-0.1,0.1-0.1,0.1c-0.1,0-0.1-0.1-0.1-0.2c0-0.1,0-0.3,0-0.4c0-0.1,0-0.2-0.1-0.2c-0.1,0-0.2,0-0.2-0.2
	c0-0.1,0.2-0.1,0.2-0.1C9.1,23.2,9.2,23.2,9.3,23.2z"/>
<path class="st4" d="M8,23.7c0-0.1,0-0.2,0-0.3c0-0.1,0-0.2,0.2-0.2c0.1,0,0.1,0.1,0.1,0.2c0,0.1,0,0.2,0,0.3c0,0.2,0,0.3,0.3,0.3
	c0.1,0,0.2,0,0.2,0.1c0,0.1-0.1,0.1-0.2,0.1C8,24.2,8,24.2,8,23.7z"/>
<path class="st4" d="M22.1,14c-0.2,0.2-0.4,0-0.5,0c0-0.2,0-0.4,0.1-0.6c0-0.1,0-0.3,0.2-0.3c0.2,0,0.2,0.1,0.2,0.3
	c0,0.1,0,0.1,0.1,0.2C22.1,13.7,22.1,13.8,22.1,14z"/>
<path class="st4" d="M16.1,23.7c0-0.1,0-0.2,0-0.4c0-0.1,0-0.2,0.1-0.2c0.2,0,0.2,0.1,0.2,0.2c0,0.1,0,0.3,0,0.4
	c0,0.2,0,0.3,0.2,0.2c0.1,0,0.1,0,0.1,0.1c0,0.1,0.1,0.2-0.1,0.2c-0.4,0.1-0.6,0-0.6-0.4C16.1,23.8,16.1,23.7,16.1,23.7z"/>
<path class="st4" d="M6.3,23.2c0.1,0,0.2,0,0.3,0c0.1,0,0.2,0,0.2,0.1c0,0.1-0.1,0.1-0.2,0.1c-0.2,0-0.2,0.1-0.2,0.2
	c0,0.1,0,0.2,0,0.3c0,0.1,0.1,0.3-0.1,0.3c-0.2,0-0.1-0.2-0.1-0.3c0-0.2,0.1-0.5-0.3-0.5c0,0,0-0.1,0-0.1c0-0.1,0-0.1,0.1-0.1
	C6,23.2,6.2,23.2,6.3,23.2C6.3,23.2,6.3,23.2,6.3,23.2z"/>
<path class="st4" d="M3.3,23.7c0,0.1,0,0.3,0,0.4c0,0.1,0,0.1-0.1,0.1c-0.1,0-0.2,0-0.2-0.1c0-0.2,0-0.5,0-0.7c0-0.1,0-0.2,0.2-0.2
	c0.2,0,0.1,0.1,0.1,0.2C3.3,23.5,3.3,23.6,3.3,23.7C3.3,23.7,3.3,23.7,3.3,23.7z"/>
<path class="st3" d="M1.7,8C1.6,8,1.5,7.9,1.5,7.7c0-0.1,0.1-0.2,0.3-0.2C1.9,7.5,2,7.6,2,7.8C2,7.9,1.9,8,1.7,8z"/>
<path class="st2" d="M2,7c0,0.2-0.1,0.3-0.3,0.3C1.6,7.2,1.5,7.1,1.5,7c0-0.1,0.1-0.3,0.2-0.2C1.9,6.8,2,6.8,2,7z"/>
<path class="st3" d="M1.5,8.6c0-0.2,0.1-0.2,0.2-0.3c0.2,0,0.2,0.1,0.2,0.2c0,0.1-0.1,0.2-0.2,0.2C1.6,8.8,1.6,8.7,1.5,8.6z"/>
<path class="st3" d="M1.9,9.4c0,0.1-0.1,0.2-0.2,0.2c-0.2,0-0.2-0.1-0.2-0.2c0-0.1,0.1-0.2,0.2-0.2C1.9,9.1,1.9,9.2,1.9,9.4z"/>
<path class="st3" d="M1.8,10.3c-0.1,0-0.2-0.1-0.2-0.2c0-0.1,0.1-0.2,0.2-0.2c0.1,0,0.2,0.1,0.2,0.2C1.9,10.2,1.9,10.3,1.8,10.3z"/>
<path class="st4" d="M19.2,21.3c0.2-0.2,0.4-0.2,0.6-0.2C19.6,21.3,19.4,21.3,19.2,21.3z"/>
<path class="st4" d="M19.9,21.1c0-0.1,0.1-0.1,0.2-0.1C20,21.1,19.9,21.1,19.9,21.1z"/>
<path class="st4" d="M20.1,21c0-0.1,0.1-0.1,0.2-0.1C20.2,20.9,20.1,21,20.1,21z"/>
<path class="st4" d="M20.2,20.9C20.3,20.8,20.3,20.8,20.2,20.9C20.3,20.8,20.3,20.8,20.2,20.9z"/>
<path class="st1" d="M9.2,14.9C9.1,14.9,9.1,14.9,9.2,14.9C9.1,14.8,9.2,14.9,9.2,14.9z"/>
<path class="st5" d="M20.9,13c0,1.8-0.7,3.4-2.3,4.4c-3.3,2.1-7.2,0-7.8-3.6c-0.1-0.3,0-0.6,0-1c0-0.2,0.1-0.3,0.1-0.5
	c0.4-2.3,2-3.9,4.3-4.2c2.4-0.3,4.5,1,5.4,3.2C20.7,12,20.8,12.5,20.9,13z M15.5,17.3C15.5,17.3,15.5,17.3,15.5,17.3
	c-0.1-1.9-2.1-3.9-4-4.1c-0.2,0-0.2,0.1-0.2,0.2c0.2,2.1,1.8,3.8,3.9,4.1C15.5,17.6,15.5,17.5,15.5,17.3z M14.9,13.1
	c1.5,0.2,2.1,1.2,2.3,2.6c0.2-1.4,0.8-2.4,2.4-2.5c-1.5-0.2-2.1-1.2-2.4-2.6C17,11.9,16.4,12.9,14.9,13.1z M11.9,11.5
	c0,0.2,0,0.3,0.2,0.4c0.2,0.1,0.3-0.1,0.3-0.2c0-0.1,0.1-0.1,0.1-0.2c0.4-1,1.3-1.6,2.3-1.9c0.1,0,0.3-0.1,0.5-0.1
	c0.1,0,0.2-0.1,0.2-0.3C15.4,9,15.3,9,15.2,9c-0.2,0-0.3,0-0.5,0c-1.1,0.3-1.9,0.9-2.5,1.8C12,11,11.9,11.2,11.9,11.5z"/>
<path class="st1" d="M20.9,13c-0.1-0.5-0.1-1.1-0.3-1.6c-0.8-2.1-3-3.5-5.4-3.2c-2.3,0.3-3.9,1.9-4.3,4.2c0,0.2-0.1,0.3-0.1,0.5
	c-0.6,0-0.6,0-0.5-0.6c0.3-1.9,1.4-3.2,3.1-4c0.6-0.3,1.3-0.5,2-0.6c1.6-0.1,3,0.4,4.2,1.4c0.9,0.8,1.5,1.8,1.8,3c0,0.1,0,0.1,0,0.2
	c0.1,0.5,0,0.5-0.4,0.6C20.9,13,20.9,13,20.9,13z"/>
<path class="st5" d="M27.9,4.6c0,0.5-0.5,1-0.9,1c-0.5,0-1-0.5-1-1c0-0.5,0.5-1,1-1C27.4,3.6,27.9,4.1,27.9,4.6z M27.3,4.6
	c0-0.2-0.2-0.4-0.4-0.4c-0.2,0-0.4,0.1-0.3,0.4c0,0.2,0.1,0.4,0.4,0.4C27.1,4.9,27.3,4.8,27.3,4.6z"/>
<path class="st0" d="M15.5,17.3c0,0.2,0,0.3-0.3,0.2c-2.1-0.3-3.7-2-3.9-4.1c0-0.1,0-0.2,0.2-0.2C13.4,13.5,15.4,15.5,15.5,17.3
	C15.5,17.3,15.5,17.3,15.5,17.3z"/>
<path class="st0" d="M14.9,13.1c1.5-0.2,2-1.2,2.3-2.6c0.2,1.4,0.8,2.4,2.4,2.6c-1.6,0.1-2.2,1.1-2.4,2.5
	C17,14.3,16.4,13.4,14.9,13.1z"/>
<path class="st0" d="M11.9,11.5c0-0.2,0.1-0.5,0.3-0.7c0.6-0.9,1.5-1.5,2.5-1.8c0.2,0,0.3,0,0.5,0c0.1,0,0.3,0.1,0.3,0.2
	c0,0.2-0.1,0.2-0.2,0.3c-0.1,0-0.3,0-0.5,0.1c-1,0.3-1.8,0.9-2.3,1.9c0,0.1-0.1,0.2-0.1,0.2c-0.1,0.1-0.2,0.2-0.3,0.2
	C11.9,11.8,11.9,11.6,11.9,11.5z"/>
<path class="st4" d="M27.3,4.6c0,0.2-0.2,0.3-0.4,0.3c-0.2,0-0.4-0.2-0.4-0.4c0-0.2,0.1-0.4,0.3-0.4C27.1,4.2,27.3,4.4,27.3,4.6z"/>
</svg>
