<?xml version="1.0" encoding="UTF-8"?>
<svg id="Layer_1" data-name="Layer 1" xmlns="http://www.w3.org/2000/svg" viewBox="0 0 31.96 30.32">
  <defs>
    <style>
      .cls-1 {
        fill: #f3e0d4;
      }

      .cls-1, .cls-2, .cls-3, .cls-4, .cls-5, .cls-6 {
        stroke-width: 0px;
      }

      .cls-2 {
        fill: #0d0b10;
      }

      .cls-3 {
        fill: #f9eddd;
      }

      .cls-4 {
        fill: #51485b;
      }

      .cls-5 {
        fill: #b1a7b0;
      }

      .cls-6 {
        fill: #797183;
      }
    </style>
  </defs>
  <path class="cls-3" d="m7.16,5.55c-.71-.63-.71-.63-.12-1.34C8.91,1.97,11.27.52,14.16.13c4.5-.61,8.19.94,11.06,4.45.19.23.24.41-.02.61-.11.08-.2.19-.29.28-.12,0-.16-.1-.23-.17-1.11-1.33-2.48-2.32-4.04-3.07-2.31-1.11-4.71-1.43-7.19-.78-2.54.66-4.69,1.96-6.29,4.1Z"/>
  <path class="cls-3" d="m13.58,22.9c.13-.79.7-1.29,1.49-1.3.84,0,1.67.02,2.51,0,.78-.02,1.31.34,1.63,1.02.08.18.17.23.35.23,1.24,0,2.47,0,3.71,0,1.43-.01,2.65-1.15,2.78-2.57.06-.57.04-1.15.02-1.72,0-.26.04-.34.32-.34.91,0,.87,0,.92.91.07,1.29-.22,2.44-1.11,3.41-.76.82-1.7,1.26-2.8,1.29-1.23.03-2.47,0-3.71.01-.14,0-.27.02-.41.03-.01-.23.07-.48-.09-.73-.22.42-.56.58-.98.64-1.01.15-2.03-.03-3.05.03-.67.04-1.33-.12-1.59-.9Z"/>
  <path class="cls-6" d="m24.37,10.86c0,3.11.01,6.22.02,9.34,0,.21-.07.38-.26.45-.5.17-.99.21-1.43-.17,0-.04-.01-.07-.01-.11,0-2.76-.02-5.52,0-8.28,0-.94.74-1.45,1.7-1.22Z"/>
  <path class="cls-5" d="m7.16,5.55c1.6-2.13,3.75-3.43,6.29-4.1,2.48-.65,4.88-.33,7.19.78,1.56.75,2.93,1.74,4.04,3.07.06.07.1.18.23.17-.15.16-.29.31-.44.47-.15.02-.22-.1-.31-.18-.57-.59-1.2-1.13-1.85-1.62-1.7-1.28-3.6-2.06-5.74-2.17-3.34-.17-6.08,1.13-8.37,3.49-.19.19-.32.45-.59.55-.15-.15-.29-.31-.44-.46Z"/>
  <path class="cls-3" d="m14.67,9.89c-.13-.24-.15-.5-.14-.76,0-.85.01-1.7.03-2.54.02-.84.65-1.44,1.46-1.43.81.01,1.41.62,1.41,1.47,0,.86-.01,1.72,0,2.58,0,.14-.09.25-.08.39-.23.59-.69.78-1.29.84-.53.05-.92-.24-1.34-.46,0,0,0,0,0,0,0-.05-.01-.07-.05-.08Z"/>
  <path class="cls-4" d="m7.61,11.85c.02-.33-.08-.66.06-.98.84-.3,1.56.18,1.68,1.11,0,.01-.02.02-.01.03,0,.02.02.04.03.06,0,.68,0,1.35,0,2.03-.08.13-.05.27-.05.4,0,1.73,0,3.46,0,5.2,0,.12,0,.24,0,.37-.08-.25-.09-.5-.08-.74,0-.26-.09-.3-.31-.2-.32.15-.64.29-.95-.23,0,.52,0,.9,0,1.29,0,.12.06.29-.12.35,0-2.73,0-5.47,0-8.2,0-.1,0-.2,0-.3,0-.16-.09-.22-.25-.18Z"/>
  <path class="cls-6" d="m7.6,6.01c.27-.11.4-.36.59-.55,2.29-2.36,5.03-3.65,8.37-3.49,2.14.11,4.04.88,5.74,2.17.66.5,1.28,1.03,1.85,1.62.08.09.16.2.31.18-.49.54-.49.53-.99.02-1.6-1.62-3.47-2.77-5.72-3.2-2.07-.4-4.07-.14-5.97.78-1.37.66-2.56,1.55-3.52,2.74-.19.23-.3.23-.45-.02-.06-.09-.14-.17-.21-.26Z"/>
  <path class="cls-3" d="m18.77,9.41c.09.92-.28,1.75-1.1,2.37-.27.21-.59.33-.91.41-.17.04-.23.12-.21.28,0,.07,0,.15,0,.22,0,.89,0,.89-.91.79-.15-.02-.2-.08-.18-.21.14-.73-.17-1.08-.84-1.39-.97-.46-1.47-1.31-1.41-2.43.01-.26,0-.52,0-.79,0-.22.12-.36.35-.35.23,0,.37.1.37.37,0,.27.01.55.02.82.03,1.12.91,1.97,2.02,1.97,1.2,0,2.03-.78,2.06-1.94,0-.27,0-.55,0-.82,0-.29.16-.4.43-.39.27.01.32.18.31.41,0,.19,0,.37,0,.67Z"/>
  <path class="cls-3" d="m31.46,27.46c-1.45.54-2.63,1.29-3.2,2.86-.54-1.58-1.78-2.28-3.18-2.9,1.45-.55,2.58-1.34,3.2-2.78.57,1.5,1.76,2.24,3.17,2.82Zm-.9,0c-.48-.32-.99-.52-1.39-.9-.11-.11-.17,0-.24.07q-.65.71-1.3,0c-.06-.06-.11-.2-.23-.09-.41.41-.96.61-1.48.9.47.26.97.42,1.33.79.21.21.31.13.46-.05.52-.65.65-.65,1.18-.02.02.03.05.06.07.09.07.1.14.13.24.04.39-.36.85-.6,1.37-.81Z"/>
  <path class="cls-3" d="m4.77,16.93c-.02-1.44-.06-2.89-.06-4.33,0-.82.55-1.29,1.31-1.22.18.02.23.08.23.25,0,1.79-.01,3.58-.02,5.37-.5.12-.99.16-1.47-.07Z"/>
  <path class="cls-3" d="m25.88,17.08c0-1.82,0-3.64-.02-5.46,0-.19.09-.22.25-.23.62-.05,1.16.35,1.17.98.03,1.54.1,3.09,0,4.63-.33.06-.65.12-.99.08-.14-.02-.28-.09-.43,0Z"/>
  <path class="cls-3" d="m0,5.95c1.4-.11,2.57-1.09,2.8-2.3.26-1.35-.37-2.47-1.79-3.22.89-.21,2.19.44,2.72,1.36.62,1.07.45,2.45-.42,3.39-.84.91-2.3,1.26-3.31.77Z"/>
  <path class="cls-5" d="m13.58,22.9c.26.77.92.94,1.59.9,1.02-.06,2.03.11,3.05-.03.42-.06.76-.22.98-.64.16.25.07.5.09.73-.35.78-.91,1.21-1.8,1.18-.8-.03-1.59,0-2.39,0-1.11-.01-1.84-1.06-1.5-2.13Z"/>
  <path class="cls-3" d="m2.41,25.98c-.25.46-.45.84-.67,1.25.46-.08.87-.12,1.25.14.55.37.77,1.06.52,1.59-.29.61-1.03.94-1.7.74-.86-.26-1.26-1.01-1.01-1.94.16-.59.47-1.12.78-1.64.17-.29.5-.05.83-.14Zm.43,2.51c0-.36-.27-.63-.64-.62-.34,0-.65.28-.66.59,0,.31.31.61.67.62.36,0,.63-.24.63-.59Z"/>
  <path class="cls-5" d="m4.77,16.93c.48.23.97.19,1.47.07,0,1.14.01,2.29.02,3.43,0,.1,0,.2-.13.24-.38.11-.76.13-1.12-.07-.16-.09-.26-.23-.25-.43,0-1.08.01-2.16.02-3.25Z"/>
  <path class="cls-3" d="m3.11,26.03c0-.45.34-.91.8-1.07.53-.19,1.16-.01,1.48.41.34.44.38.93.1,1.35-.22.32-.5.59-.8.83-.24.18-.2.3.03.43.12.07.22.16.34.23.29.18.31.37.07.62-.07.07-.12.05-.19.02-.47-.18-.86-.5-1.23-.83-.13-.12-.09-.22.01-.35.26-.33.56-.63.86-.93.16-.16.28-.35.27-.59,0-.24-.13-.4-.34-.49-.19-.09-.37-.04-.51.11-.16.17-.13.4-.02.55.14.2.07.23-.11.28-.45.13-.75-.09-.75-.58Z"/>
  <path class="cls-5" d="m29.48,1.15c.2-.14.34-.35.57-.48.57-.32,1.09-.25,1.55.23.42.44.48,1.04.15,1.54-.21.31-.47.58-.78.79-.27-.27-.55-.54-.82-.81.01-.12,0-.23-.15-.24h0s-.08-.05-.12-.08c-.02,0-.03-.01-.03-.03-.04-.04-.08-.08-.12-.12-.02,0-.04-.01-.03-.03-.04-.04-.08-.08-.11-.12-.04,0-.08-.01-.13-.02-.1-.22.02-.43.02-.65Z"/>
  <path class="cls-6" d="m29.48,1.15c0,.22-.12.43-.02.65-.47.48-.95.97-1.42,1.45-.26-.16-.46-.38-.65-.61-.48-.61-.4-1.48.19-1.94.56-.44,1.34-.28,1.83.37.02.03.05.06.07.09Z"/>
  <path class="cls-3" d="m28.04,3.25c.47-.48.95-.97,1.42-1.45.04,0,.08.01.13.02.04.04.08.08.11.12,0,.02.01.04.03.03.04.04.08.08.12.12,0,.02,0,.04.03.03.04.03.08.05.12.08,0,0,0,0,0,0,0,.12.08.18.15.24.27.27.55.54.82.81-.51.47-1.05.92-1.46,1.53-.46-.56-.97-1.04-1.47-1.52Z"/>
  <path class="cls-3" d="m6.94,7.58c-.5.9-.78,1.85-.68,2.89.02.26-.05.34-.32.33-.63-.02-.62,0-.62-.62,0-1.26.42-2.39,1.1-3.43.19.26.43.5.53.83Z"/>
  <path class="cls-3" d="m25.6,6.74c.85,1.16,1.2,2.46,1.1,3.88,0,.12-.04.16-.17.18-.7.08-.74.07-.73-.62.02-.97-.28-1.85-.76-2.68.18-.25.42-.47.55-.76Z"/>
  <path class="cls-3" d="m24.37,10.86c-.95-.23-1.69.28-1.7,1.22-.01,2.76,0,5.52,0,8.28,0,.04,0,.07.01.11-.23-.08-.33-.25-.33-.48,0-2.7-.01-5.41,0-8.11,0-.93.78-1.55,1.64-1.38.18.04.42.06.35.36Z"/>
  <path class="cls-3" d="m4.12,14.1c0,.32,0,.65,0,.97-.09.45-.02.91-.03,1.36,0,.16-.02.22-.21.25-.33.04-.64-.06-.95-.04,0-.52,0-1.04,0-1.56.06-.04.06-.09.05-.16.2-.61.57-.9,1.12-.88.01.02.03.04.04.07Z"/>
  <path class="cls-3" d="m27.97,16.64c0-.77,0-1.55-.03-2.32,0-.33.15-.34.4-.27.45.14.81.59.83,1.09.02.5,0,1,0,1.5-.4,0-.8,0-1.2,0Z"/>
  <path class="cls-3" d="m9.38,14.1c0-.68,0-1.35,0-2.03,0-.01.02-.02.02-.03,0-.02-.02-.04-.03-.06-.12-.93-.84-1.4-1.68-1.11-.04-.44.31-.41.56-.41.78,0,1.4.62,1.4,1.41.01,2.73,0,5.45.01,8.18,0,.15-.03.27-.16.35-.14-.1-.07-.25-.07-.38,0-.99,0-1.99,0-2.98,0-.98-.02-1.96-.03-2.94Z"/>
  <path class="cls-6" d="m9.38,14.1c0,.98.02,1.96.03,2.94,0,.99,0,1.99,0,2.98,0,.13-.07.27.07.38-.51.4-1.06.49-1.65.21.01-.02.02-.05.03-.07.19-.07.12-.23.12-.35,0-.38,0-.77,0-1.29.31.52.63.38.95.23.23-.11.32-.06.31.2,0,.25,0,.49.08.74,0-.12,0-.24,0-.37,0-1.73,0-3.46,0-5.2,0-.13-.04-.28.05-.4Z"/>
  <path class="cls-5" d="m2.92,16.63c.32-.01.63.08.95.04.19-.02.21-.09.21-.25.01-.45-.06-.91.03-1.36.08.77.02,1.53,0,2.3,0,.25,0,.5-.01.74,0,.14.09.34-.06.41-.15.07-.33-.04-.48-.12-.41-.24-.6-.62-.65-1.07-.03-.23,0-.47,0-.7Z"/>
  <path class="cls-5" d="m27.97,16.64c.4,0,.8,0,1.2,0,.02.46.04.92-.21,1.34-.18.3-.44.49-.79.57-.12.03-.19,0-.2-.13,0-.59-.08-1.19,0-1.78Z"/>
  <path class="cls-3" d="m7.86,20.53s-.02.05-.03.07c-.29,0-.21-.23-.21-.38,0-1.49-.01-2.99-.01-4.48,0-1.29,0-2.59,0-3.88.16-.05.24.01.25.18,0,.1,0,.2,0,.3,0,2.73,0,5.47,0,8.2Z"/>
  <path class="cls-3" d="m14.18,14.61c.05-.37.3-.51.62-.52.8-.02,1.6-.01,2.39-.02.28,0,.46.15.59.38-.01.18-.15.17-.27.17-1.11,0-2.23,0-3.34-.01Z"/>
  <path class="cls-5" d="m14.18,14.61c1.11,0,2.23,0,3.34.01.12,0,.26.01.27-.17.16.5.1.61-.38.61-.96,0-1.92,0-2.88,0q-.45,0-.36-.46Z"/>
  <path class="cls-1" d="m17.13,28.39c.48,0,.84.36.83.82-.01.43-.38.78-.84.77-.49,0-.84-.34-.84-.8,0-.46.36-.79.85-.79Zm.03,1.22c.22-.03.41-.12.41-.4,0-.28-.15-.45-.43-.45-.27,0-.47.12-.46.41,0,.27.18.42.48.44Z"/>
  <path class="cls-1" d="m19.8,29.94c-.23.05-.44.08-.45-.27,0-.15-.14-.14-.25-.15-.14,0-.17.08-.16.19.02.18-.04.27-.25.26-.24-.01-.16-.18-.16-.3,0-.33.01-.67-.01-1-.02-.24.07-.3.29-.28.15.02.3,0,.45.02.53.07.73.43.47.9-.14.25.1.41.07.63Zm-.65-1.18c-.15-.03-.22.04-.21.2.01.12,0,.26.19.24.16-.01.3-.03.31-.24,0-.19-.13-.21-.29-.21Z"/>
  <path class="cls-1" d="m10.72,28.97c0-.11,0-.22,0-.34,0-.13.01-.24.2-.23.18,0,.21.07.2.22,0,.21,0,.42,0,.64,0,.2.06.36.28.37.22.01.35-.13.38-.34.02-.22.01-.45,0-.67,0-.15,0-.23.19-.22.19,0,.2.1.19.24,0,.2.01.4,0,.6-.03.49-.3.75-.75.74-.45,0-.66-.23-.68-.74,0-.09,0-.17,0-.26h0Z"/>
  <path class="cls-1" d="m14.57,29.15c0-.07-.02-.15,0-.22.05-.18-.15-.45.14-.53.54-.13.98.02,1.13.34.17.37-.02.7-.45.8-.19.04-.46-.02-.43.35.01.13-.16.07-.25.08-.12.01-.14-.08-.14-.17,0-.21,0-.42,0-.63h0Zm.6.06c.2,0,.36-.04.35-.23,0-.19-.18-.24-.35-.26-.17-.02-.21.06-.21.22,0,.18.03.29.2.27Z"/>
  <path class="cls-1" d="m12.77,29.16s0-.1,0-.15c.03-.2-.11-.51.07-.58.23-.1.54-.08.81.01.27.09.43.3.4.6-.02.31-.22.45-.51.5-.18.03-.44-.04-.38.32.03.14-.14.09-.23.1-.1.01-.17,0-.17-.13,0-.22,0-.45,0-.67h0Zm.39-.19c-.03.15,0,.25.2.25.18,0,.34-.05.34-.25,0-.19-.16-.22-.32-.23-.16-.01-.27.04-.22.24Z"/>
  <path class="cls-1" d="m9.31,28.82c.15.19.35.19.51.26.22.1.39.23.34.51-.05.26-.24.36-.49.38-.2.01-.4,0-.59-.07-.09-.04-.21-.06-.12-.2.05-.08.07-.24.24-.13.02.01.05.02.07.02.17.04.42.18.49-.05.06-.19-.23-.16-.36-.24-.07-.05-.17-.06-.24-.1-.26-.15-.3-.45-.07-.65.2-.18.66-.2.88-.06.12.08.13.17.08.29-.06.13-.14.11-.24.05-.15-.09-.3-.1-.5-.01Z"/>
  <path class="cls-1" d="m20.71,29.34c0-.12,0-.25,0-.37.01-.16-.05-.22-.21-.21-.12.01-.25.04-.25-.17,0-.21.13-.2.28-.2.27,0,.55.01.82.02.1,0,.2.01.2.15,0,.13-.06.19-.18.18-.23-.02-.22.13-.22.29,0,.24,0,.47,0,.71,0,.17-.07.21-.22.21-.15,0-.24-.02-.22-.2.01-.14,0-.27,0-.41h0Z"/>
  <path class="cls-5" d="m14.72,9.98c.42.23.8.52,1.34.46.59-.06,1.06-.25,1.29-.84,0,.56-.33.88-.78,1.11-.51.26-1,.17-1.43-.17-.18-.14-.35-.31-.41-.56Z"/>
  <path class="cls-5" d="m25.88,17.08c.14-.09.28-.02.43,0,.33.05.66-.01.99-.08.05.57.03.59-.53.6-.12,0-.25,0-.37,0q-.52,0-.51-.52Z"/>
  <path class="cls-5" d="m6.94,7.58c-.1-.33-.33-.56-.53-.83.02-.04.04-.09.07-.13.41-.57.4-.56.86-.04.12.13.12.21.02.34-.15.21-.28.43-.42.65Z"/>
  <path class="cls-5" d="m25.6,6.74c-.13.29-.36.51-.55.76-.12-.2-.24-.4-.37-.6-.08-.12-.07-.21.02-.33.35-.51.51-.48.9.16Z"/>
  <path class="cls-5" d="m2.96,14.91c.02.06.01.12-.05.16-.02-.06,0-.11.05-.16Z"/>
  <path class="cls-5" d="m4.12,14.1s-.03-.04-.04-.07c.04,0,.07.02.04.07Z"/>
  <path class="cls-5" d="m14.67,9.89s.06.04.05.08c-.05,0-.07-.04-.05-.08Z"/>
  <path class="cls-6" d="m9.36,11.98s.02.04.03.06c0,0,0,.02-.02.03,0-.02-.02-.04-.03-.06,0,0,0-.02.01-.03Z"/>
  <path class="cls-2" d="m30.57,27.47c-.52.21-.98.45-1.37.81-.1.09-.17.06-.24-.04-.02-.03-.05-.06-.07-.09-.52-.63-.65-.63-1.18.02-.15.18-.25.27-.46.05-.36-.37-.85-.53-1.33-.79.53-.29,1.07-.49,1.48-.9.12-.11.17.02.23.09q.65.71,1.3,0c.07-.07.13-.17.24-.07.4.38.91.59,1.39.9Z"/>
  <path class="cls-2" d="m2.84,28.49c0,.34-.27.6-.63.59-.35,0-.68-.31-.67-.62,0-.31.31-.58.66-.59.37,0,.65.26.64.62Z"/>
  <path class="cls-6" d="m30.15,2.43c-.08-.06-.16-.12-.15-.24.15.01.16.12.15.24Z"/>
  <path class="cls-6" d="m29.85,2.08s-.08-.08-.12-.12c.04.04.08.08.12.12Z"/>
  <path class="cls-6" d="m30,2.19s-.08-.05-.12-.08c.04.03.08.05.12.08Z"/>
  <path class="cls-6" d="m29.7,1.93s-.08-.08-.11-.12c.04.04.08.08.11.12Z"/>
  <path class="cls-2" d="m17.16,29.6c-.3-.02-.48-.17-.48-.44,0-.29.2-.42.46-.41.28,0,.43.17.43.45,0,.28-.19.37-.41.4Z"/>
  <path class="cls-2" d="m19.16,28.76c.16,0,.29.02.29.21,0,.2-.15.23-.31.24-.19.02-.18-.12-.19-.24-.01-.16.05-.23.21-.2Z"/>
  <path class="cls-2" d="m15.17,29.21c-.17.02-.21-.09-.2-.27,0-.15.05-.23.21-.22.17.02.34.07.35.26,0,.18-.16.23-.35.23Z"/>
  <path class="cls-2" d="m13.16,28.97c-.05-.2.06-.25.22-.24.16,0,.32.05.32.23,0,.2-.16.24-.34.25-.2,0-.23-.1-.2-.25Z"/>
</svg>